<svg width="20" height="21" viewBox="0 0 20 21" fill="none" xmlns="http://www.w3.org/2000/svg">
<path d="M19.8023 10.55C19.8023 9.87025 19.7472 9.1868 19.6296 8.51805H10.1973V12.3689H15.5987C15.3746 13.6108 14.6544 14.7095 13.5998 15.4076V17.9063H16.8223C18.7146 16.1646 19.8023 13.5925 19.8023 10.55Z" fill="#4285F4"/>
<path d="M10.1973 20.3204C12.8943 20.3204 15.1688 19.4348 16.826 17.9062L13.6035 15.4076C12.7069 16.0176 11.5495 16.363 10.2009 16.363C7.59208 16.363 5.38006 14.6029 4.58638 12.2366H1.26101V14.8124C2.95861 18.1892 6.41626 20.3204 10.1973 20.3204Z" fill="#34A853"/>
<path d="M4.58272 12.2366C4.16383 10.9946 4.16383 9.64977 4.58272 8.40781V5.83202H1.26102C-0.157313 8.65767 -0.157323 11.9867 1.26101 14.8124L4.58272 12.2366Z" fill="#FBBC04"/>
<path d="M10.1973 4.27772C11.6229 4.25568 13.0009 4.79214 14.0334 5.77689L16.8884 2.92185C15.0806 1.22426 12.6812 0.29095 10.1973 0.320346C6.41626 0.320346 2.95862 2.45154 1.26102 5.83202L4.58272 8.40781C5.37273 6.03779 7.5884 4.27772 10.1973 4.27772Z" fill="#EA4335"/>
</svg>
