<svg width="104" height="26" viewBox="0 0 104 26" fill="none" xmlns="http://www.w3.org/2000/svg">
<rect width="103.339" height="25.32" rx="2" fill="#568B49"/>
<mask id="path-2-outside-1_17_2978" maskUnits="userSpaceOnUse" x="5" y="1" width="94" height="22" fill="black">
<rect fill="white" x="5" y="1" width="94" height="22"/>
<path d="M13.0392 12.7534L17.5001 19.6084C17.7866 20.0177 17.6024 20.3451 17.1113 20.3451H14.0419C13.7145 20.3451 13.4894 20.2223 13.3052 19.9358L10.7678 16.0479C10.686 15.9251 10.5632 15.9251 10.4814 16.0479L9.64239 17.1938C9.581 17.2756 9.56054 17.3575 9.56054 17.4598V19.7312C9.56054 20.12 9.35591 20.3451 8.94665 20.3451H6.61389C6.22509 20.3451 6 20.12 6 19.7312V6.63496C6 6.22571 6.22509 6.02108 6.61389 6.02108H8.94665C9.35591 6.02108 9.56054 6.22571 9.56054 6.63496V10.748C9.56054 10.9526 9.70378 10.9935 9.80609 10.8298L13.0188 6.40987C13.2029 6.14385 13.428 6.02108 13.7554 6.02108H16.7839C17.2955 6.02108 17.4592 6.34848 17.1727 6.7782L13.0392 12.4669C12.9778 12.5692 12.9574 12.651 13.0392 12.7534Z"/>
<path d="M21.2874 9.36334C21.5541 9.36334 21.7267 9.47316 21.8365 9.72417L23.9701 14.9483C24.0328 15.0895 24.1583 15.0582 24.1583 14.9013V9.83399C24.1583 9.52022 24.3309 9.36334 24.629 9.36334H26.3861C26.6998 9.36334 26.8567 9.52022 26.8567 9.83399V19.8744C26.8567 20.1725 26.6998 20.3451 26.3861 20.3451H24.0799C23.8132 20.3451 23.6406 20.2353 23.5308 19.9842L21.3972 14.7601C21.3345 14.6189 21.209 14.6503 21.209 14.8071V19.8744C21.209 20.1725 21.0521 20.3451 20.7383 20.3451H18.9812C18.6832 20.3451 18.5106 20.1725 18.5106 19.8744V9.83399C18.5106 9.52022 18.6832 9.36334 18.9812 9.36334H21.2874Z"/>
<path d="M30.6193 9.36334C30.9331 9.36334 31.0899 9.52022 31.0899 9.83399V19.8744C31.0899 20.1725 30.9331 20.3451 30.6193 20.3451H28.8936C28.5955 20.3451 28.4229 20.1725 28.4229 19.8744V9.83399C28.4229 9.52022 28.5955 9.36334 28.8936 9.36334H30.6193Z"/>
<path d="M32.4945 16.8152V12.8932C32.4945 11.8578 32.7142 9.08095 36.4323 9.08095C39.7268 9.08095 40.2759 11.2459 40.3543 12.4696C40.37 12.752 40.2288 12.9246 39.9464 12.9873L38.1736 13.3795C37.8599 13.4423 37.6873 13.3011 37.6559 12.9716C37.5932 12.2186 37.3265 11.7793 36.4323 11.7793C35.2713 11.7793 35.1929 12.5167 35.1929 13.7247V15.9838C35.1929 17.1917 35.2713 17.9291 36.4323 17.9291C37.5932 17.9291 37.6716 17.1917 37.6716 16.423H36.7617C36.4636 16.423 36.2911 16.2505 36.2911 15.9524V14.6973C36.2911 14.3836 36.4636 14.2267 36.7617 14.2267H39.8993C40.2131 14.2267 40.37 14.3836 40.37 14.6973V16.8152C40.37 17.8506 40.1504 20.6275 36.4323 20.6275C32.7142 20.6275 32.4945 17.8506 32.4945 16.8152Z"/>
<path d="M43.9795 9.36334C44.2776 9.36334 44.4501 9.53591 44.4501 9.83399V13.756C44.4501 14.0541 44.6227 14.2267 44.9208 14.2267H46.4269C46.7406 14.2267 46.8975 14.0541 46.8975 13.756V9.83399C46.8975 9.53591 47.0701 9.36334 47.3681 9.36334H49.1252C49.439 9.36334 49.5959 9.52022 49.5959 9.83399V19.8744C49.5959 20.1725 49.439 20.3451 49.1252 20.3451H47.3681C47.0701 20.3451 46.8975 20.1725 46.8975 19.8744V17.3957C46.8975 17.0819 46.7406 16.925 46.4269 16.925H44.9208C44.6227 16.925 44.4501 17.0819 44.4501 17.3957V19.8744C44.4501 20.1725 44.2933 20.3451 43.9795 20.3451H42.2224C41.9243 20.3451 41.7518 20.1725 41.7518 19.8744V9.83399C41.7518 9.52022 41.9087 9.36334 42.2224 9.36334H43.9795Z"/>
<path d="M53.6687 12.5324C53.6687 12.2186 53.5118 12.0617 53.198 12.0617H51.0017C50.7036 12.0617 50.531 11.8891 50.531 11.5911V9.83399C50.531 9.52022 50.7036 9.36334 51.0017 9.36334H59.034C59.3478 9.36334 59.5047 9.52022 59.5047 9.83399V11.5911C59.5047 11.8891 59.3478 12.0617 59.034 12.0617H56.8377C56.5396 12.0617 56.367 12.2186 56.367 12.5324V19.8744C56.367 20.1725 56.2102 20.3451 55.8964 20.3451H54.1393C53.8412 20.3451 53.6687 20.1725 53.6687 19.8744V12.5324Z"/>
<path d="M70.0944 6.02108C70.5037 6.02108 70.7083 6.22571 70.7083 6.63496V8.9268C70.7083 9.31559 70.5037 9.54069 70.0944 9.54069H64.9378C64.549 9.54069 64.3239 9.74532 64.3239 10.1546V10.8094C64.3239 11.1982 64.549 11.4233 64.9378 11.4233H68.3142C68.7234 11.4233 68.928 11.6279 68.928 12.0372V14.329C68.928 14.7178 68.7234 14.9429 68.3142 14.9429H64.9378C64.549 14.9429 64.3239 15.1475 64.3239 15.5568V19.7312C64.3239 20.12 64.1193 20.3451 63.71 20.3451H61.2954C60.9066 20.3451 60.6815 20.12 60.6815 19.7312V6.63496C60.6815 6.22571 60.9066 6.02108 61.2954 6.02108H70.0944Z"/>
<path d="M79.3021 19.8117C79.3021 20.1568 79.1452 20.3451 78.8315 20.3451H77.0744C76.7763 20.3451 76.6037 20.1882 76.6037 19.8744V18.5096C76.6037 18.1958 76.4469 18.0389 76.1331 18.0389H74.7839C74.4858 18.0389 74.3133 18.1958 74.3133 18.5096V19.8744C74.3133 20.1882 74.1564 20.3451 73.8426 20.3451H72.0856C71.7875 20.3451 71.6149 20.1568 71.6149 19.8117V13.1599C71.6149 11.1832 71.9287 9.08095 75.4585 9.08095C78.9884 9.08095 79.3021 11.1832 79.3021 13.1599V19.8117ZM76.6037 13.1599C76.6037 12.4068 76.4939 12.0303 75.4585 12.0303C74.4231 12.0303 74.3133 12.4068 74.3133 13.1599V14.8699C74.3133 15.168 74.4858 15.3405 74.7839 15.3405H76.1331C76.4469 15.3248 76.6037 15.168 76.6037 14.8542V13.1599Z"/>
<path d="M92.4282 9.36334C92.742 9.36334 92.8989 9.52022 92.8989 9.83399V17.1761C92.8989 17.4741 93.0714 17.6467 93.3695 17.6467H96.868C97.1817 17.6467 97.3386 17.8036 97.3386 18.1173V19.8744C97.3386 20.1882 97.1817 20.3451 96.868 20.3451H90.6711C90.3731 20.3451 90.2005 20.1725 90.2005 19.8744V9.83399C90.2005 9.52022 90.3731 9.36334 90.6711 9.36334H92.4282Z"/>
<path d="M88.2502 19.2397C88.451 18.956 88.598 18.5777 88.5223 18.102C88.3347 16.9236 86.756 15.792 86.0674 14.732C85.3898 13.6887 84.9301 12.6587 85.638 12.2341L85.6972 12.1967C85.9005 12.0807 86.0109 11.9664 85.9949 11.8657C85.9675 11.6936 85.5799 11.5972 84.9932 11.585C85.4871 11.0137 85.7357 10.2374 85.6077 9.43322C85.3774 7.98644 84.0179 7.00027 82.5712 7.23055C81.1244 7.46082 80.1382 8.82033 80.3685 10.2671C80.4965 11.0713 80.9739 11.7321 81.6207 12.1218C81.0667 12.3155 80.7282 12.5275 80.7556 12.6996C80.7717 12.8003 80.912 12.8746 81.1417 12.9217C81.1641 12.9274 81.1842 12.9334 81.2093 12.939C82.014 13.1229 81.8968 14.2447 81.5766 15.4468C81.2511 16.6681 80.1017 18.234 80.2892 19.4124C80.3649 19.8881 80.6221 20.2021 80.9011 20.4094C80.6449 20.6056 80.5104 20.8023 80.5393 20.9838C80.5602 21.1152 80.6674 21.227 80.838 21.32L88.5925 20.0858C88.7261 19.9444 88.7933 19.8048 88.7724 19.6734C88.7435 19.4919 88.5546 19.3466 88.2502 19.2397Z"/>
<path d="M84.3514 8.76983C84.2485 8.78621 84.1403 8.74511 84.0752 8.65455C84.0605 8.63463 83.6567 8.11298 82.735 8.25968C81.8133 8.40639 81.5917 9.02757 81.5826 9.05435C81.5324 9.20201 81.3719 9.2832 81.2244 9.23415C81.0762 9.18559 80.9945 9.02862 81.0414 8.87995C81.0539 8.84035 81.3643 7.90228 82.6456 7.69833C83.927 7.49439 84.5129 8.28981 84.5375 8.32388C84.6292 8.45164 84.5995 8.62904 84.4717 8.72037C84.4349 8.74695 84.3933 8.76316 84.3514 8.76983ZM84.902 12.2315C84.8739 12.236 84.8445 12.2342 84.815 12.225C84.8135 12.2249 84.4187 12.1166 83.3753 12.2827C82.3316 12.4488 81.9903 12.6742 81.9868 12.6763C81.9013 12.7348 81.7832 12.7137 81.724 12.6284C81.6648 12.5434 81.6839 12.4272 81.7682 12.3665C81.8072 12.3389 82.1814 12.089 83.3157 11.9084C84.4497 11.728 84.8834 11.8492 84.9294 11.8638C85.0292 11.8955 85.0845 12.0018 85.0532 12.1016C85.0303 12.1723 84.9705 12.2206 84.902 12.2315ZM81.6323 20.618C81.5372 20.6332 81.4446 20.5742 81.4195 20.4792C81.3931 20.3783 81.4532 20.2743 81.5546 20.2478C81.5725 20.2427 83.4178 19.7583 84.5368 19.5802C85.6557 19.4021 87.5599 19.2897 87.5793 19.2889C87.6835 19.2827 87.7736 19.3624 87.7792 19.467C87.7854 19.5711 87.7048 19.6626 87.6011 19.6669C87.5821 19.668 85.6966 19.7793 84.5963 19.9544C83.4957 20.1296 81.6692 20.6091 81.6508 20.6139L81.6323 20.618Z"/>
<path d="M31.8391 9.60803C32.0186 9.52651 32.1987 9.38324 32.2977 9.12864C32.5427 8.49784 32.0931 7.49221 32.0589 6.77618C32.0253 6.07148 32.0946 5.43556 32.5627 5.42999L32.6025 5.42859C32.7352 5.42991 32.8219 5.4055 32.8429 5.35161C32.8787 5.25947 32.7164 5.10144 32.4326 4.92775C32.8378 4.78915 33.1815 4.48003 33.3488 4.04954C33.6496 3.27511 33.2658 2.4034 32.4913 2.10252C31.7169 1.80164 30.8452 2.18552 30.5443 2.95996C30.377 3.39044 30.4219 3.85055 30.6273 4.22636C30.3006 4.16284 30.0742 4.16988 30.0384 4.26203C30.0175 4.31591 30.065 4.39247 30.164 4.4812C30.1733 4.49036 30.1815 4.49906 30.1922 4.50897C30.5337 4.82912 30.1555 5.34503 29.655 5.84225C29.1464 6.34736 28.1357 6.78563 27.8906 7.41643C27.7917 7.67104 27.8279 7.89836 27.9053 8.07966C27.7237 8.10249 27.6016 8.16042 27.5638 8.25757C27.5365 8.32788 27.5571 8.41332 27.614 8.50762L31.7648 10.1203C31.8707 10.0893 31.9435 10.0401 31.9709 9.96978C32.0086 9.87262 31.9576 9.74746 31.8391 9.60803Z"/>
<path d="M32.9231 3.36543C32.868 3.34403 32.8268 3.29295 32.8208 3.23C32.8193 3.21604 32.7707 2.84509 32.2773 2.6534C31.7839 2.46171 31.4978 2.70261 31.4857 2.71311C31.4189 2.77108 31.317 2.76495 31.2588 2.69876C31.2002 2.63262 31.205 2.53236 31.2705 2.47296C31.2879 2.45714 31.7082 2.08644 32.3941 2.35292C33.0799 2.61941 33.1395 3.1765 33.1418 3.20023C33.1502 3.28902 33.0849 3.36741 32.9962 3.3756C32.9705 3.37809 32.9456 3.37414 32.9231 3.36543ZM32.203 5.2183C32.188 5.21246 32.1741 5.20314 32.1623 5.19025C32.1623 5.19025 31.9992 5.02381 31.4407 4.80683C30.882 4.58977 30.6504 4.60261 30.648 4.60263C30.5895 4.60684 30.5377 4.56274 30.533 4.504C30.5283 4.44546 30.5709 4.39399 30.6296 4.38842C30.6566 4.386 30.9113 4.37062 31.5185 4.60651C32.1255 4.84233 32.3032 5.02574 32.3216 5.04603C32.3614 5.09009 32.3581 5.15797 32.3142 5.19788C32.2828 5.22601 32.2397 5.23254 32.203 5.2183ZM28.2037 8.3909C28.1529 8.37113 28.1243 8.31578 28.1392 8.26208C28.1551 8.20509 28.2143 8.17138 28.2715 8.18737C28.2818 8.18998 29.3241 8.48034 29.923 8.71305C30.522 8.94575 31.4867 9.43515 31.4964 9.44032C31.5492 9.46705 31.5706 9.53185 31.5434 9.58468C31.5167 9.63747 31.451 9.65923 31.3991 9.63165C31.3894 9.62676 30.4341 9.14218 29.8452 8.91336C29.2561 8.68447 28.2244 8.39708 28.214 8.39419L28.2037 8.3909Z"/>
</mask>
<path d="M13.0392 12.7534L17.5001 19.6084C17.7866 20.0177 17.6024 20.3451 17.1113 20.3451H14.0419C13.7145 20.3451 13.4894 20.2223 13.3052 19.9358L10.7678 16.0479C10.686 15.9251 10.5632 15.9251 10.4814 16.0479L9.64239 17.1938C9.581 17.2756 9.56054 17.3575 9.56054 17.4598V19.7312C9.56054 20.12 9.35591 20.3451 8.94665 20.3451H6.61389C6.22509 20.3451 6 20.12 6 19.7312V6.63496C6 6.22571 6.22509 6.02108 6.61389 6.02108H8.94665C9.35591 6.02108 9.56054 6.22571 9.56054 6.63496V10.748C9.56054 10.9526 9.70378 10.9935 9.80609 10.8298L13.0188 6.40987C13.2029 6.14385 13.428 6.02108 13.7554 6.02108H16.7839C17.2955 6.02108 17.4592 6.34848 17.1727 6.7782L13.0392 12.4669C12.9778 12.5692 12.9574 12.651 13.0392 12.7534Z" fill="#F0F1F0"/>
<path d="M21.2874 9.36334C21.5541 9.36334 21.7267 9.47316 21.8365 9.72417L23.9701 14.9483C24.0328 15.0895 24.1583 15.0582 24.1583 14.9013V9.83399C24.1583 9.52022 24.3309 9.36334 24.629 9.36334H26.3861C26.6998 9.36334 26.8567 9.52022 26.8567 9.83399V19.8744C26.8567 20.1725 26.6998 20.3451 26.3861 20.3451H24.0799C23.8132 20.3451 23.6406 20.2353 23.5308 19.9842L21.3972 14.7601C21.3345 14.6189 21.209 14.6503 21.209 14.8071V19.8744C21.209 20.1725 21.0521 20.3451 20.7383 20.3451H18.9812C18.6832 20.3451 18.5106 20.1725 18.5106 19.8744V9.83399C18.5106 9.52022 18.6832 9.36334 18.9812 9.36334H21.2874Z" fill="#F0F1F0"/>
<path d="M30.6193 9.36334C30.9331 9.36334 31.0899 9.52022 31.0899 9.83399V19.8744C31.0899 20.1725 30.9331 20.3451 30.6193 20.3451H28.8936C28.5955 20.3451 28.4229 20.1725 28.4229 19.8744V9.83399C28.4229 9.52022 28.5955 9.36334 28.8936 9.36334H30.6193Z" fill="#F0F1F0"/>
<path d="M32.4945 16.8152V12.8932C32.4945 11.8578 32.7142 9.08095 36.4323 9.08095C39.7268 9.08095 40.2759 11.2459 40.3543 12.4696C40.37 12.752 40.2288 12.9246 39.9464 12.9873L38.1736 13.3795C37.8599 13.4423 37.6873 13.3011 37.6559 12.9716C37.5932 12.2186 37.3265 11.7793 36.4323 11.7793C35.2713 11.7793 35.1929 12.5167 35.1929 13.7247V15.9838C35.1929 17.1917 35.2713 17.9291 36.4323 17.9291C37.5932 17.9291 37.6716 17.1917 37.6716 16.423H36.7617C36.4636 16.423 36.2911 16.2505 36.2911 15.9524V14.6973C36.2911 14.3836 36.4636 14.2267 36.7617 14.2267H39.8993C40.2131 14.2267 40.37 14.3836 40.37 14.6973V16.8152C40.37 17.8506 40.1504 20.6275 36.4323 20.6275C32.7142 20.6275 32.4945 17.8506 32.4945 16.8152Z" fill="#F0F1F0"/>
<path d="M43.9795 9.36334C44.2776 9.36334 44.4501 9.53591 44.4501 9.83399V13.756C44.4501 14.0541 44.6227 14.2267 44.9208 14.2267H46.4269C46.7406 14.2267 46.8975 14.0541 46.8975 13.756V9.83399C46.8975 9.53591 47.0701 9.36334 47.3681 9.36334H49.1252C49.439 9.36334 49.5959 9.52022 49.5959 9.83399V19.8744C49.5959 20.1725 49.439 20.3451 49.1252 20.3451H47.3681C47.0701 20.3451 46.8975 20.1725 46.8975 19.8744V17.3957C46.8975 17.0819 46.7406 16.925 46.4269 16.925H44.9208C44.6227 16.925 44.4501 17.0819 44.4501 17.3957V19.8744C44.4501 20.1725 44.2933 20.3451 43.9795 20.3451H42.2224C41.9243 20.3451 41.7518 20.1725 41.7518 19.8744V9.83399C41.7518 9.52022 41.9087 9.36334 42.2224 9.36334H43.9795Z" fill="#F0F1F0"/>
<path d="M53.6687 12.5324C53.6687 12.2186 53.5118 12.0617 53.198 12.0617H51.0017C50.7036 12.0617 50.531 11.8891 50.531 11.5911V9.83399C50.531 9.52022 50.7036 9.36334 51.0017 9.36334H59.034C59.3478 9.36334 59.5047 9.52022 59.5047 9.83399V11.5911C59.5047 11.8891 59.3478 12.0617 59.034 12.0617H56.8377C56.5396 12.0617 56.367 12.2186 56.367 12.5324V19.8744C56.367 20.1725 56.2102 20.3451 55.8964 20.3451H54.1393C53.8412 20.3451 53.6687 20.1725 53.6687 19.8744V12.5324Z" fill="#F0F1F0"/>
<path d="M70.0944 6.02108C70.5037 6.02108 70.7083 6.22571 70.7083 6.63496V8.9268C70.7083 9.31559 70.5037 9.54069 70.0944 9.54069H64.9378C64.549 9.54069 64.3239 9.74532 64.3239 10.1546V10.8094C64.3239 11.1982 64.549 11.4233 64.9378 11.4233H68.3142C68.7234 11.4233 68.928 11.6279 68.928 12.0372V14.329C68.928 14.7178 68.7234 14.9429 68.3142 14.9429H64.9378C64.549 14.9429 64.3239 15.1475 64.3239 15.5568V19.7312C64.3239 20.12 64.1193 20.3451 63.71 20.3451H61.2954C60.9066 20.3451 60.6815 20.12 60.6815 19.7312V6.63496C60.6815 6.22571 60.9066 6.02108 61.2954 6.02108H70.0944Z" fill="#F0F1F0"/>
<path d="M79.3021 19.8117C79.3021 20.1568 79.1452 20.3451 78.8315 20.3451H77.0744C76.7763 20.3451 76.6037 20.1882 76.6037 19.8744V18.5096C76.6037 18.1958 76.4469 18.0389 76.1331 18.0389H74.7839C74.4858 18.0389 74.3133 18.1958 74.3133 18.5096V19.8744C74.3133 20.1882 74.1564 20.3451 73.8426 20.3451H72.0856C71.7875 20.3451 71.6149 20.1568 71.6149 19.8117V13.1599C71.6149 11.1832 71.9287 9.08095 75.4585 9.08095C78.9884 9.08095 79.3021 11.1832 79.3021 13.1599V19.8117ZM76.6037 13.1599C76.6037 12.4068 76.4939 12.0303 75.4585 12.0303C74.4231 12.0303 74.3133 12.4068 74.3133 13.1599V14.8699C74.3133 15.168 74.4858 15.3405 74.7839 15.3405H76.1331C76.4469 15.3248 76.6037 15.168 76.6037 14.8542V13.1599Z" fill="#F0F1F0"/>
<path d="M92.4282 9.36334C92.742 9.36334 92.8989 9.52022 92.8989 9.83399V17.1761C92.8989 17.4741 93.0714 17.6467 93.3695 17.6467H96.868C97.1817 17.6467 97.3386 17.8036 97.3386 18.1173V19.8744C97.3386 20.1882 97.1817 20.3451 96.868 20.3451H90.6711C90.3731 20.3451 90.2005 20.1725 90.2005 19.8744V9.83399C90.2005 9.52022 90.3731 9.36334 90.6711 9.36334H92.4282Z" fill="#F0F1F0"/>
<path d="M88.2502 19.2397C88.451 18.956 88.598 18.5777 88.5223 18.102C88.3347 16.9236 86.756 15.792 86.0674 14.732C85.3898 13.6887 84.9301 12.6587 85.638 12.2341L85.6972 12.1967C85.9005 12.0807 86.0109 11.9664 85.9949 11.8657C85.9675 11.6936 85.5799 11.5972 84.9932 11.585C85.4871 11.0137 85.7357 10.2374 85.6077 9.43322C85.3774 7.98644 84.0179 7.00027 82.5712 7.23055C81.1244 7.46082 80.1382 8.82033 80.3685 10.2671C80.4965 11.0713 80.9739 11.7321 81.6207 12.1218C81.0667 12.3155 80.7282 12.5275 80.7556 12.6996C80.7717 12.8003 80.912 12.8746 81.1417 12.9217C81.1641 12.9274 81.1842 12.9334 81.2093 12.939C82.014 13.1229 81.8968 14.2447 81.5766 15.4468C81.2511 16.6681 80.1017 18.234 80.2892 19.4124C80.3649 19.8881 80.6221 20.2021 80.9011 20.4094C80.6449 20.6056 80.5104 20.8023 80.5393 20.9838C80.5602 21.1152 80.6674 21.227 80.838 21.32L88.5925 20.0858C88.7261 19.9444 88.7933 19.8048 88.7724 19.6734C88.7435 19.4919 88.5546 19.3466 88.2502 19.2397Z" fill="#F0F1F0"/>
<path d="M84.3514 8.76983C84.2485 8.78621 84.1403 8.74511 84.0752 8.65455C84.0605 8.63463 83.6567 8.11298 82.735 8.25968C81.8133 8.40639 81.5917 9.02757 81.5826 9.05435C81.5324 9.20201 81.3719 9.2832 81.2244 9.23415C81.0762 9.18559 80.9945 9.02862 81.0414 8.87995C81.0539 8.84035 81.3643 7.90228 82.6456 7.69833C83.927 7.49439 84.5129 8.28981 84.5375 8.32388C84.6292 8.45164 84.5995 8.62904 84.4717 8.72037C84.4349 8.74695 84.3933 8.76316 84.3514 8.76983ZM84.902 12.2315C84.8739 12.236 84.8445 12.2342 84.815 12.225C84.8135 12.2249 84.4187 12.1166 83.3753 12.2827C82.3316 12.4488 81.9903 12.6742 81.9868 12.6763C81.9013 12.7348 81.7832 12.7137 81.724 12.6284C81.6648 12.5434 81.6839 12.4272 81.7682 12.3665C81.8072 12.3389 82.1814 12.089 83.3157 11.9084C84.4497 11.728 84.8834 11.8492 84.9294 11.8638C85.0292 11.8955 85.0845 12.0018 85.0532 12.1016C85.0303 12.1723 84.9705 12.2206 84.902 12.2315ZM81.6323 20.618C81.5372 20.6332 81.4446 20.5742 81.4195 20.4792C81.3931 20.3783 81.4532 20.2743 81.5546 20.2478C81.5725 20.2427 83.4178 19.7583 84.5368 19.5802C85.6557 19.4021 87.5599 19.2897 87.5793 19.2889C87.6835 19.2827 87.7736 19.3624 87.7792 19.467C87.7854 19.5711 87.7048 19.6626 87.6011 19.6669C87.5821 19.668 85.6966 19.7793 84.5963 19.9544C83.4957 20.1296 81.6692 20.6091 81.6508 20.6139L81.6323 20.618Z" fill="#66757F"/>
<path d="M31.8391 9.60803C32.0186 9.52651 32.1987 9.38324 32.2977 9.12864C32.5427 8.49784 32.0931 7.49221 32.0589 6.77618C32.0253 6.07148 32.0946 5.43556 32.5627 5.42999L32.6025 5.42859C32.7352 5.42991 32.8219 5.4055 32.8429 5.35161C32.8787 5.25947 32.7164 5.10144 32.4326 4.92775C32.8378 4.78915 33.1815 4.48003 33.3488 4.04954C33.6496 3.27511 33.2658 2.4034 32.4913 2.10252C31.7169 1.80164 30.8452 2.18552 30.5443 2.95996C30.377 3.39044 30.4219 3.85055 30.6273 4.22636C30.3006 4.16284 30.0742 4.16988 30.0384 4.26203C30.0175 4.31591 30.065 4.39247 30.164 4.4812C30.1733 4.49036 30.1815 4.49906 30.1922 4.50897C30.5337 4.82912 30.1555 5.34503 29.655 5.84225C29.1464 6.34736 28.1357 6.78563 27.8906 7.41643C27.7917 7.67104 27.8279 7.89836 27.9053 8.07966C27.7237 8.10249 27.6016 8.16042 27.5638 8.25757C27.5365 8.32788 27.5571 8.41332 27.614 8.50762L31.7648 10.1203C31.8707 10.0893 31.9435 10.0401 31.9709 9.96978C32.0086 9.87262 31.9576 9.74746 31.8391 9.60803Z" fill="#F0F1F0"/>
<path d="M32.9231 3.36543C32.868 3.34403 32.8268 3.29295 32.8208 3.23C32.8193 3.21604 32.7707 2.84509 32.2773 2.6534C31.7839 2.46171 31.4978 2.70261 31.4857 2.71311C31.4189 2.77108 31.317 2.76495 31.2588 2.69876C31.2002 2.63262 31.205 2.53236 31.2705 2.47296C31.2879 2.45714 31.7082 2.08644 32.3941 2.35292C33.0799 2.61941 33.1395 3.1765 33.1418 3.20023C33.1502 3.28902 33.0849 3.36741 32.9962 3.3756C32.9705 3.37809 32.9456 3.37414 32.9231 3.36543ZM32.203 5.2183C32.188 5.21246 32.1741 5.20314 32.1623 5.19025C32.1623 5.19025 31.9992 5.02381 31.4407 4.80683C30.882 4.58977 30.6504 4.60261 30.648 4.60263C30.5895 4.60684 30.5377 4.56274 30.533 4.504C30.5283 4.44546 30.5709 4.39399 30.6296 4.38842C30.6566 4.386 30.9113 4.37062 31.5185 4.60651C32.1255 4.84233 32.3032 5.02574 32.3216 5.04603C32.3614 5.09009 32.3581 5.15797 32.3142 5.19788C32.2828 5.22601 32.2397 5.23254 32.203 5.2183ZM28.2037 8.3909C28.1529 8.37113 28.1243 8.31578 28.1392 8.26208C28.1551 8.20509 28.2143 8.17138 28.2715 8.18737C28.2818 8.18998 29.3241 8.48034 29.923 8.71305C30.522 8.94575 31.4867 9.43515 31.4964 9.44032C31.5492 9.46705 31.5706 9.53185 31.5434 9.58468C31.5167 9.63747 31.451 9.65923 31.3991 9.63165C31.3894 9.62676 30.4341 9.14218 29.8452 8.91336C29.2561 8.68447 28.2244 8.39708 28.214 8.39419L28.2037 8.3909Z" fill="#66757F"/>
<path d="M13.0392 12.7534L17.5001 19.6084C17.7866 20.0177 17.6024 20.3451 17.1113 20.3451H14.0419C13.7145 20.3451 13.4894 20.2223 13.3052 19.9358L10.7678 16.0479C10.686 15.9251 10.5632 15.9251 10.4814 16.0479L9.64239 17.1938C9.581 17.2756 9.56054 17.3575 9.56054 17.4598V19.7312C9.56054 20.12 9.35591 20.3451 8.94665 20.3451H6.61389C6.22509 20.3451 6 20.12 6 19.7312V6.63496C6 6.22571 6.22509 6.02108 6.61389 6.02108H8.94665C9.35591 6.02108 9.56054 6.22571 9.56054 6.63496V10.748C9.56054 10.9526 9.70378 10.9935 9.80609 10.8298L13.0188 6.40987C13.2029 6.14385 13.428 6.02108 13.7554 6.02108H16.7839C17.2955 6.02108 17.4592 6.34848 17.1727 6.7782L13.0392 12.4669C12.9778 12.5692 12.9574 12.651 13.0392 12.7534Z" stroke="#0C0E0C" stroke-width="1.4" mask="url(#path-2-outside-1_17_2978)"/>
<path d="M21.2874 9.36334C21.5541 9.36334 21.7267 9.47316 21.8365 9.72417L23.9701 14.9483C24.0328 15.0895 24.1583 15.0582 24.1583 14.9013V9.83399C24.1583 9.52022 24.3309 9.36334 24.629 9.36334H26.3861C26.6998 9.36334 26.8567 9.52022 26.8567 9.83399V19.8744C26.8567 20.1725 26.6998 20.3451 26.3861 20.3451H24.0799C23.8132 20.3451 23.6406 20.2353 23.5308 19.9842L21.3972 14.7601C21.3345 14.6189 21.209 14.6503 21.209 14.8071V19.8744C21.209 20.1725 21.0521 20.3451 20.7383 20.3451H18.9812C18.6832 20.3451 18.5106 20.1725 18.5106 19.8744V9.83399C18.5106 9.52022 18.6832 9.36334 18.9812 9.36334H21.2874Z" stroke="#0C0E0C" stroke-width="1.4" mask="url(#path-2-outside-1_17_2978)"/>
<path d="M30.6193 9.36334C30.9331 9.36334 31.0899 9.52022 31.0899 9.83399V19.8744C31.0899 20.1725 30.9331 20.3451 30.6193 20.3451H28.8936C28.5955 20.3451 28.4229 20.1725 28.4229 19.8744V9.83399C28.4229 9.52022 28.5955 9.36334 28.8936 9.36334H30.6193Z" stroke="#0C0E0C" stroke-width="1.4" mask="url(#path-2-outside-1_17_2978)"/>
<path d="M32.4945 16.8152V12.8932C32.4945 11.8578 32.7142 9.08095 36.4323 9.08095C39.7268 9.08095 40.2759 11.2459 40.3543 12.4696C40.37 12.752 40.2288 12.9246 39.9464 12.9873L38.1736 13.3795C37.8599 13.4423 37.6873 13.3011 37.6559 12.9716C37.5932 12.2186 37.3265 11.7793 36.4323 11.7793C35.2713 11.7793 35.1929 12.5167 35.1929 13.7247V15.9838C35.1929 17.1917 35.2713 17.9291 36.4323 17.9291C37.5932 17.9291 37.6716 17.1917 37.6716 16.423H36.7617C36.4636 16.423 36.2911 16.2505 36.2911 15.9524V14.6973C36.2911 14.3836 36.4636 14.2267 36.7617 14.2267H39.8993C40.2131 14.2267 40.37 14.3836 40.37 14.6973V16.8152C40.37 17.8506 40.1504 20.6275 36.4323 20.6275C32.7142 20.6275 32.4945 17.8506 32.4945 16.8152Z" stroke="#0C0E0C" stroke-width="1.4" mask="url(#path-2-outside-1_17_2978)"/>
<path d="M43.9795 9.36334C44.2776 9.36334 44.4501 9.53591 44.4501 9.83399V13.756C44.4501 14.0541 44.6227 14.2267 44.9208 14.2267H46.4269C46.7406 14.2267 46.8975 14.0541 46.8975 13.756V9.83399C46.8975 9.53591 47.0701 9.36334 47.3681 9.36334H49.1252C49.439 9.36334 49.5959 9.52022 49.5959 9.83399V19.8744C49.5959 20.1725 49.439 20.3451 49.1252 20.3451H47.3681C47.0701 20.3451 46.8975 20.1725 46.8975 19.8744V17.3957C46.8975 17.0819 46.7406 16.925 46.4269 16.925H44.9208C44.6227 16.925 44.4501 17.0819 44.4501 17.3957V19.8744C44.4501 20.1725 44.2933 20.3451 43.9795 20.3451H42.2224C41.9243 20.3451 41.7518 20.1725 41.7518 19.8744V9.83399C41.7518 9.52022 41.9087 9.36334 42.2224 9.36334H43.9795Z" stroke="#0C0E0C" stroke-width="1.4" mask="url(#path-2-outside-1_17_2978)"/>
<path d="M53.6687 12.5324C53.6687 12.2186 53.5118 12.0617 53.198 12.0617H51.0017C50.7036 12.0617 50.531 11.8891 50.531 11.5911V9.83399C50.531 9.52022 50.7036 9.36334 51.0017 9.36334H59.034C59.3478 9.36334 59.5047 9.52022 59.5047 9.83399V11.5911C59.5047 11.8891 59.3478 12.0617 59.034 12.0617H56.8377C56.5396 12.0617 56.367 12.2186 56.367 12.5324V19.8744C56.367 20.1725 56.2102 20.3451 55.8964 20.3451H54.1393C53.8412 20.3451 53.6687 20.1725 53.6687 19.8744V12.5324Z" stroke="#0C0E0C" stroke-width="1.4" mask="url(#path-2-outside-1_17_2978)"/>
<path d="M70.0944 6.02108C70.5037 6.02108 70.7083 6.22571 70.7083 6.63496V8.9268C70.7083 9.31559 70.5037 9.54069 70.0944 9.54069H64.9378C64.549 9.54069 64.3239 9.74532 64.3239 10.1546V10.8094C64.3239 11.1982 64.549 11.4233 64.9378 11.4233H68.3142C68.7234 11.4233 68.928 11.6279 68.928 12.0372V14.329C68.928 14.7178 68.7234 14.9429 68.3142 14.9429H64.9378C64.549 14.9429 64.3239 15.1475 64.3239 15.5568V19.7312C64.3239 20.12 64.1193 20.3451 63.71 20.3451H61.2954C60.9066 20.3451 60.6815 20.12 60.6815 19.7312V6.63496C60.6815 6.22571 60.9066 6.02108 61.2954 6.02108H70.0944Z" stroke="#0C0E0C" stroke-width="1.4" mask="url(#path-2-outside-1_17_2978)"/>
<path d="M79.3021 19.8117C79.3021 20.1568 79.1452 20.3451 78.8315 20.3451H77.0744C76.7763 20.3451 76.6037 20.1882 76.6037 19.8744V18.5096C76.6037 18.1958 76.4469 18.0389 76.1331 18.0389H74.7839C74.4858 18.0389 74.3133 18.1958 74.3133 18.5096V19.8744C74.3133 20.1882 74.1564 20.3451 73.8426 20.3451H72.0856C71.7875 20.3451 71.6149 20.1568 71.6149 19.8117V13.1599C71.6149 11.1832 71.9287 9.08095 75.4585 9.08095C78.9884 9.08095 79.3021 11.1832 79.3021 13.1599V19.8117ZM76.6037 13.1599C76.6037 12.4068 76.4939 12.0303 75.4585 12.0303C74.4231 12.0303 74.3133 12.4068 74.3133 13.1599V14.8699C74.3133 15.168 74.4858 15.3405 74.7839 15.3405H76.1331C76.4469 15.3248 76.6037 15.168 76.6037 14.8542V13.1599Z" stroke="#0C0E0C" stroke-width="1.4" mask="url(#path-2-outside-1_17_2978)"/>
<path d="M92.4282 9.36334C92.742 9.36334 92.8989 9.52022 92.8989 9.83399V17.1761C92.8989 17.4741 93.0714 17.6467 93.3695 17.6467H96.868C97.1817 17.6467 97.3386 17.8036 97.3386 18.1173V19.8744C97.3386 20.1882 97.1817 20.3451 96.868 20.3451H90.6711C90.3731 20.3451 90.2005 20.1725 90.2005 19.8744V9.83399C90.2005 9.52022 90.3731 9.36334 90.6711 9.36334H92.4282Z" stroke="#0C0E0C" stroke-width="1.4" mask="url(#path-2-outside-1_17_2978)"/>
<path d="M88.2502 19.2397C88.451 18.956 88.598 18.5777 88.5223 18.102C88.3347 16.9236 86.756 15.792 86.0674 14.732C85.3898 13.6887 84.9301 12.6587 85.638 12.2341L85.6972 12.1967C85.9005 12.0807 86.0109 11.9664 85.9949 11.8657C85.9675 11.6936 85.5799 11.5972 84.9932 11.585C85.4871 11.0137 85.7357 10.2374 85.6077 9.43322C85.3774 7.98644 84.0179 7.00027 82.5712 7.23055C81.1244 7.46082 80.1382 8.82033 80.3685 10.2671C80.4965 11.0713 80.9739 11.7321 81.6207 12.1218C81.0667 12.3155 80.7282 12.5275 80.7556 12.6996C80.7717 12.8003 80.912 12.8746 81.1417 12.9217C81.1641 12.9274 81.1842 12.9334 81.2093 12.939C82.014 13.1229 81.8968 14.2447 81.5766 15.4468C81.2511 16.6681 80.1017 18.234 80.2892 19.4124C80.3649 19.8881 80.6221 20.2021 80.9011 20.4094C80.6449 20.6056 80.5104 20.8023 80.5393 20.9838C80.5602 21.1152 80.6674 21.227 80.838 21.32L88.5925 20.0858C88.7261 19.9444 88.7933 19.8048 88.7724 19.6734C88.7435 19.4919 88.5546 19.3466 88.2502 19.2397Z" stroke="#0C0E0C" stroke-width="1.4" mask="url(#path-2-outside-1_17_2978)"/>
<path d="M84.3514 8.76983C84.2485 8.78621 84.1403 8.74511 84.0752 8.65455C84.0605 8.63463 83.6567 8.11298 82.735 8.25968C81.8133 8.40639 81.5917 9.02757 81.5826 9.05435C81.5324 9.20201 81.3719 9.2832 81.2244 9.23415C81.0762 9.18559 80.9945 9.02862 81.0414 8.87995C81.0539 8.84035 81.3643 7.90228 82.6456 7.69833C83.927 7.49439 84.5129 8.28981 84.5375 8.32388C84.6292 8.45164 84.5995 8.62904 84.4717 8.72037C84.4349 8.74695 84.3933 8.76316 84.3514 8.76983ZM84.902 12.2315C84.8739 12.236 84.8445 12.2342 84.815 12.225C84.8135 12.2249 84.4187 12.1166 83.3753 12.2827C82.3316 12.4488 81.9903 12.6742 81.9868 12.6763C81.9013 12.7348 81.7832 12.7137 81.724 12.6284C81.6648 12.5434 81.6839 12.4272 81.7682 12.3665C81.8072 12.3389 82.1814 12.089 83.3157 11.9084C84.4497 11.728 84.8834 11.8492 84.9294 11.8638C85.0292 11.8955 85.0845 12.0018 85.0532 12.1016C85.0303 12.1723 84.9705 12.2206 84.902 12.2315ZM81.6323 20.618C81.5372 20.6332 81.4446 20.5742 81.4195 20.4792C81.3931 20.3783 81.4532 20.2743 81.5546 20.2478C81.5725 20.2427 83.4178 19.7583 84.5368 19.5802C85.6557 19.4021 87.5599 19.2897 87.5793 19.2889C87.6835 19.2827 87.7736 19.3624 87.7792 19.467C87.7854 19.5711 87.7048 19.6626 87.6011 19.6669C87.5821 19.668 85.6966 19.7793 84.5963 19.9544C83.4957 20.1296 81.6692 20.6091 81.6508 20.6139L81.6323 20.618Z" stroke="#0C0E0C" stroke-width="1.4" mask="url(#path-2-outside-1_17_2978)"/>
<path d="M31.8391 9.60803C32.0186 9.52651 32.1987 9.38324 32.2977 9.12864C32.5427 8.49784 32.0931 7.49221 32.0589 6.77618C32.0253 6.07148 32.0946 5.43556 32.5627 5.42999L32.6025 5.42859C32.7352 5.42991 32.8219 5.4055 32.8429 5.35161C32.8787 5.25947 32.7164 5.10144 32.4326 4.92775C32.8378 4.78915 33.1815 4.48003 33.3488 4.04954C33.6496 3.27511 33.2658 2.4034 32.4913 2.10252C31.7169 1.80164 30.8452 2.18552 30.5443 2.95996C30.377 3.39044 30.4219 3.85055 30.6273 4.22636C30.3006 4.16284 30.0742 4.16988 30.0384 4.26203C30.0175 4.31591 30.065 4.39247 30.164 4.4812C30.1733 4.49036 30.1815 4.49906 30.1922 4.50897C30.5337 4.82912 30.1555 5.34503 29.655 5.84225C29.1464 6.34736 28.1357 6.78563 27.8906 7.41643C27.7917 7.67104 27.8279 7.89836 27.9053 8.07966C27.7237 8.10249 27.6016 8.16042 27.5638 8.25757C27.5365 8.32788 27.5571 8.41332 27.614 8.50762L31.7648 10.1203C31.8707 10.0893 31.9435 10.0401 31.9709 9.96978C32.0086 9.87262 31.9576 9.74746 31.8391 9.60803Z" stroke="#0C0E0C" stroke-width="1.4" mask="url(#path-2-outside-1_17_2978)"/>
<path d="M32.9231 3.36543C32.868 3.34403 32.8268 3.29295 32.8208 3.23C32.8193 3.21604 32.7707 2.84509 32.2773 2.6534C31.7839 2.46171 31.4978 2.70261 31.4857 2.71311C31.4189 2.77108 31.317 2.76495 31.2588 2.69876C31.2002 2.63262 31.205 2.53236 31.2705 2.47296C31.2879 2.45714 31.7082 2.08644 32.3941 2.35292C33.0799 2.61941 33.1395 3.1765 33.1418 3.20023C33.1502 3.28902 33.0849 3.36741 32.9962 3.3756C32.9705 3.37809 32.9456 3.37414 32.9231 3.36543ZM32.203 5.2183C32.188 5.21246 32.1741 5.20314 32.1623 5.19025C32.1623 5.19025 31.9992 5.02381 31.4407 4.80683C30.882 4.58977 30.6504 4.60261 30.648 4.60263C30.5895 4.60684 30.5377 4.56274 30.533 4.504C30.5283 4.44546 30.5709 4.39399 30.6296 4.38842C30.6566 4.386 30.9113 4.37062 31.5185 4.60651C32.1255 4.84233 32.3032 5.02574 32.3216 5.04603C32.3614 5.09009 32.3581 5.15797 32.3142 5.19788C32.2828 5.22601 32.2397 5.23254 32.203 5.2183ZM28.2037 8.3909C28.1529 8.37113 28.1243 8.31578 28.1392 8.26208C28.1551 8.20509 28.2143 8.17138 28.2715 8.18737C28.2818 8.18998 29.3241 8.48034 29.923 8.71305C30.522 8.94575 31.4867 9.43515 31.4964 9.44032C31.5492 9.46705 31.5706 9.53185 31.5434 9.58468C31.5167 9.63747 31.451 9.65923 31.3991 9.63165C31.3894 9.62676 30.4341 9.14218 29.8452 8.91336C29.2561 8.68447 28.2244 8.39708 28.214 8.39419L28.2037 8.3909Z" stroke="#0C0E0C" stroke-width="1.4" mask="url(#path-2-outside-1_17_2978)"/>
</svg>
